<svg width="438" height="176" viewBox="0 0 438 176" fill="none" xmlns="http://www.w3.org/2000/svg">
<path d="M360.951 174.658C335.425 174.658 316.408 169.418 303.899 158.937C291.559 148.457 285.389 132.82 285.389 112.028C285.389 91.236 291.559 75.5996 303.899 65.1189C316.408 54.6383 335.425 49.398 360.951 49.398C411.494 49.398 436.766 70.2747 436.766 112.028C436.766 153.782 411.494 174.658 360.951 174.658ZM360.951 130.792C365.346 130.792 368.642 129.44 370.84 126.735C373.037 124.03 374.136 119.128 374.136 112.028C374.136 104.928 373.037 100.026 370.84 97.3215C368.642 94.6168 365.346 93.2645 360.951 93.2645C356.725 93.2645 353.513 94.6168 351.315 97.3215C349.118 100.026 348.019 104.928 348.019 112.028C348.019 119.128 349.118 124.03 351.315 126.735C353.513 129.44 356.725 130.792 360.951 130.792Z" fill="#F7F6F2"/>
<path d="M140.648 172.123V1.22076H202.011V76.022L224.071 51.9335H293.04L245.624 103.914L295.576 172.123H230.664L207.589 135.863L202.011 142.202V172.123H140.648Z" fill="#F7F6F2"/>
<path d="M0 172.122V8.82734H130.585V52.9474H61.3624V67.6541H120.95V113.296H61.3624V128.002H130.585V172.122H0Z" fill="#F7F6F2"/>
</svg>
